<svg xmlns="http://www.w3.org/2000/svg" width="240" height="28"><path fill="#69D2C2" d="M119.565 13.146C119.216 5.827 113.173 0 105.767 0 98.501 0 92.551 5.61 92 12.736l.009.009v-.002c.099-.942.327-1.846.666-2.694l.017-.046c.047-.116.097-.23.148-.344l.039-.088c.048-.104.1-.207.15-.31.02-.037.037-.075.056-.112.05-.096.103-.19.156-.285.023-.042.045-.084.07-.126.05-.09.105-.177.16-.265l.082-.134c.054-.084.11-.166.166-.247a9.41 9.41 0 01.095-.14l.17-.232.108-.142c.058-.074.116-.145.176-.218l.118-.143a11.177 11.177 0 01.826-.859 10.686 10.686 0 01.705-.596l.171-.129a9.066 9.066 0 01.587-.402 12.15 12.15 0 01.598-.352 9.304 9.304 0 01.42-.215c.07-.034.14-.069.212-.101.072-.033.145-.064.218-.095.071-.03.142-.062.214-.09.075-.03.151-.058.227-.087.072-.026.143-.054.216-.079.077-.027.156-.052.235-.077.072-.023.144-.047.217-.068.081-.024.164-.046.245-.068.073-.019.144-.04.216-.057.085-.02.17-.039.257-.057.071-.016.142-.032.213-.046.089-.017.18-.032.27-.047.069-.011.137-.025.208-.035.096-.014.192-.024.289-.035.065-.008.13-.017.196-.024.108-.01.217-.016.326-.024.056-.003.11-.009.166-.011a10.13 10.13 0 012.324.154c.632.115 1.243.287 1.829.513 3.807 1.468 6.51 5.16 6.51 9.484a6.512 6.512 0 11-12.94 1.04l-.019.018c.024.233.057.463.097.69l.005.036c.038.218.085.433.138.646l.015.065a10.152 10.152 0 00.407 1.255l.045.112a10 10 0 00.232.522l.064.132c.08.162.166.322.255.48l.086.15c.089.148.18.294.274.438.036.056.074.11.112.165.093.135.188.268.287.398l.14.179c.097.12.195.24.297.357a11.265 11.265 0 00.473.507c.068.067.137.131.206.196.1.094.2.189.303.279.08.069.162.134.242.2.1.082.198.164.3.24.093.07.189.136.283.203.097.068.193.138.292.203.108.07.22.136.33.202.092.055.181.112.274.164.133.074.27.141.406.21.075.038.15.079.227.115a9.997 9.997 0 002.484.794c.412.075.832.128 1.26.151h1.139c5.126-.283 9.238-4.366 9.57-9.479a14.243 14.243 0 000-1.336"/><path fill="#FFD637" d="M109.995 23.961c-.189.01-.379.017-.57.017a10.228 10.228 0 01-4.313-.962c-.077-.036-.15-.078-.227-.116-.136-.068-.273-.135-.406-.209-.093-.052-.182-.11-.273-.164-.111-.066-.224-.132-.331-.202-.1-.065-.195-.135-.291-.203-.095-.067-.19-.132-.283-.202-.103-.077-.201-.16-.3-.24-.082-.067-.164-.133-.243-.201a8.84 8.84 0 01-.302-.279c-.07-.065-.14-.129-.206-.196a9.084 9.084 0 01-.302-.318c-.058-.063-.116-.124-.172-.189a9.7 9.7 0 01-.296-.357l-.141-.179c-.1-.13-.194-.263-.288-.398l-.112-.165a10.45 10.45 0 01-.614-1.069l-.064-.132a10.15 10.15 0 01-.232-.52l-.045-.113a10.525 10.525 0 01-.205-.562l-.029-.09c-.063-.199-.122-.4-.173-.603l-.015-.065a10.122 10.122 0 01-.138-.646l-.006-.036a9.786 9.786 0 01-.096-.69l-3.719 3.719-3.596-3.596a13.772 13.772 0 004.389 8.966 13.765 13.765 0 009.371 3.668 13.76 13.76 0 009.371-3.668 13.77 13.77 0 004.426-9.479 10.162 10.162 0 01-9.57 9.48"/><path fill="#FF5FA0" d="M95.603 16.34l3.775-3.775a6.512 6.512 0 0112.902 1.25c0-4.326-2.702-8.017-6.51-9.485a10.259 10.259 0 00-4.153-.667c-.055.002-.11.008-.165.012-.109.007-.218.013-.326.023-.066.007-.131.016-.196.024-.097.011-.193.021-.29.036-.07.01-.138.023-.208.034l-.269.046-.213.047a10.65 10.65 0 00-.257.057c-.072.018-.144.038-.215.057a8.825 8.825 0 00-.246.068c-.073.021-.145.045-.217.068-.078.025-.158.05-.235.077-.073.025-.144.053-.216.079-.075.029-.152.056-.227.087-.072.029-.143.06-.214.09-.073.03-.146.062-.218.095-.072.032-.142.067-.213.1l-.209.104-.21.112c-.067.037-.134.073-.2.111a8.578 8.578 0 00-.398.24 10.581 10.581 0 00-1.311.99c-.051.045-.101.092-.151.138-.065.06-.128.12-.19.18-.048.046-.094.093-.141.14l-.185.192a13.244 13.244 0 00-.31.347l-.12.143c-.059.072-.118.145-.175.218-.037.047-.072.095-.107.142-.058.077-.116.154-.171.233l-.095.138c-.056.082-.112.165-.166.248l-.083.134a9.82 9.82 0 00-.16.265l-.07.126a8.72 8.72 0 00-.155.285l-.055.112a8.864 8.864 0 00-.151.31l-.038.088a10.123 10.123 0 00-.166.39 10.108 10.108 0 00-.666 2.694v.002l3.594 3.594z"/></svg>